<?xml version="1.0" encoding="utf-8"?>
<!-- Generator: Adobe Illustrator 16.0.0, SVG Export Plug-In . SVG Version: 6.00 Build 0)  -->
<!DOCTYPE svg PUBLIC "-//W3C//DTD SVG 1.1//EN" "http://www.w3.org/Graphics/SVG/1.1/DTD/svg11.dtd">
<svg version="1.1" id="Ebene_1" xmlns="http://www.w3.org/2000/svg" xmlns:xlink="http://www.w3.org/1999/xlink" x="0px" y="0px"
	 width="66.9px" height="68.2px" viewBox="0 0 66.9 68.2" style="enable-background:new 0 0 66.9 68.2;" xml:space="preserve">
<style type="text/css">
<![CDATA[
	.st0{fill:#13110C;}
]]>
</style>
<g>
	<g>
		<path class="st0" d="M34,30.6c-14,0-25-4.8-25-11s11-11,25-11s25,4.8,25,11S48,30.6,34,30.6z M34,10.6c-13.8,0-23,4.7-23,9
			s9.2,9,23,9s23-4.7,23-9S47.8,10.6,34,10.6z"/>
	</g>
	<g>
		<path class="st0" d="M34,40.6c-14,0-25-4.8-25-11c0-0.6,0.4-1,1-1s1,0.4,1,1c0,4.3,9.2,9,23,9s23-4.7,23-9c0-0.6,0.4-1,1-1
			s1,0.4,1,1C59,35.8,48,40.6,34,40.6z"/>
	</g>
	<g>
		<path class="st0" d="M34,50.6c-14,0-25-4.8-25-11c0-0.6,0.4-1,1-1s1,0.4,1,1c0,4.3,9.2,9,23,9s23-4.7,23-9c0-0.6,0.4-1,1-1
			s1,0.4,1,1C59,45.8,48,50.6,34,50.6z"/>
	</g>
	<g>
		<path class="st0" d="M34,60.6c-14,0-25-4.8-25-11v-30c0-0.6,0.4-1,1-1s1,0.4,1,1v30c0,4.3,9.2,9,23,9s23-4.7,23-9v-30
			c0-0.6,0.4-1,1-1s1,0.4,1,1v30C59,55.8,48,60.6,34,60.6z"/>
	</g>
</g>
</svg>
