<?xml version="1.0" encoding="utf-8"?>
<!-- Generator: Adobe Illustrator 16.0.0, SVG Export Plug-In . SVG Version: 6.00 Build 0)  -->
<!DOCTYPE svg PUBLIC "-//W3C//DTD SVG 1.1//EN" "http://www.w3.org/Graphics/SVG/1.1/DTD/svg11.dtd">
<svg version="1.1" id="Ebene_1" xmlns="http://www.w3.org/2000/svg" xmlns:xlink="http://www.w3.org/1999/xlink" x="0px" y="0px"
	 width="66.9px" height="68.2px" viewBox="0 0 66.9 68.2" style="enable-background:new 0 0 66.9 68.2;" xml:space="preserve">
<style type="text/css">
<![CDATA[
	.st0{fill:#13110C;}
]]>
</style>
<g>
	<g>
		<path class="st0" d="M62.2,16.3c-0.6,0-1,0.4-1,1c0,0.6,0.4,1,1,1c0.6,0,1-0.4,1-1C63.2,16.7,62.7,16.3,62.2,16.3L62.2,16.3z"/>
	</g>
	<g>
		<path class="st0" d="M62.2,63.3c-0.6,0-1-0.4-1-1v-41c0-0.6,0.4-1,1-1s1,0.4,1,1v41C63.2,62.8,62.7,63.3,62.2,63.3z"/>
	</g>
	<g>
		<path class="st0" d="M38.5,63c-4.4,0-8.7-2-11.3-5.1c-2.6,3.1-6.9,5.1-11.3,5.1c-5.6,0-10.2-3-12.6-8.4c-0.2-0.5,0-1,0.4-1.3
			c0.5-0.2,1-0.1,1.3,0.3c1.1,1.7,2.8,2.6,4.5,2.6c0,0,0,0,0,0c2.3,0,4.6-1.7,4.6-5c0-5.1,4.3-7.8,8.4-7.8c1.8,0,3.4,0.5,4.6,1.5
			c1.2-1,2.8-1.5,4.6-1.5c4,0,8.4,2.7,8.4,7.8c0,3.3,2.3,5,4.6,5c1.8,0,3.4-0.9,4.5-2.6c0.3-0.4,0.9-0.6,1.3-0.3
			c0.5,0.3,0.6,0.8,0.4,1.3C48.7,60,44.1,63,38.5,63z M27.2,55.3c0.3,0,0.7,0.2,0.8,0.5c2.1,3.2,6.2,5.3,10.5,5.3c3,0,5.6-1,7.7-2.9
			c-0.5,0.1-0.9,0.1-1.4,0.1c-3.2,0-6.6-2.5-6.6-7c0-3.8-3.3-5.8-6.4-5.8c-1.6,0-3,0.6-3.9,1.5c-0.2,0.2-0.5,0.3-0.7,0.3
			c0,0,0,0,0,0c-0.3,0-0.5-0.1-0.7-0.3c-0.9-1-2.3-1.5-3.9-1.5c-3.1,0-6.4,2-6.4,5.8c0,4.6-3.4,7-6.6,7c0,0,0,0,0,0
			c-0.5,0-0.9,0-1.4-0.1c2.1,1.9,4.7,2.9,7.7,2.9c4.3,0,8.4-2.1,10.5-5.3C26.5,55.4,26.9,55.3,27.2,55.3z"/>
	</g>
	<g>
		<path class="st0" d="M44.2,31.3c-7.7,0-14-6.3-14-14s6.3-14,14-14s14,6.3,14,14S51.9,31.3,44.2,31.3z M44.2,5.3
			c-6.6,0-12,5.4-12,12s5.4,12,12,12c6.6,0,12-5.4,12-12S50.8,5.3,44.2,5.3z"/>
	</g>
	<g>
		<path class="st0" d="M44.2,27.3c-0.6,0-1-0.4-1-1s0.4-1,1-1c4.4,0,8-3.6,8-8c0-0.6,0.4-1,1-1s1,0.4,1,1
			C54.2,22.8,49.7,27.3,44.2,27.3z"/>
	</g>
</g>
</svg>
