<?xml version="1.0" encoding="utf-8"?>
<!-- Generator: Adobe Illustrator 16.0.0, SVG Export Plug-In . SVG Version: 6.00 Build 0)  -->
<!DOCTYPE svg PUBLIC "-//W3C//DTD SVG 1.1//EN" "http://www.w3.org/Graphics/SVG/1.1/DTD/svg11.dtd">
<svg version="1.1" id="Ebene_1" xmlns="http://www.w3.org/2000/svg" xmlns:xlink="http://www.w3.org/1999/xlink" x="0px" y="0px"
	 width="66.9px" height="68.2px" viewBox="0 0 66.9 68.2" style="enable-background:new 0 0 66.9 68.2;" xml:space="preserve">
<style type="text/css">
<![CDATA[
	.st0{fill:#13110C;}
]]>
</style>
<g>
	<g>
		<path class="st0" d="M33.4,62.9c-16,0-29-13-29-29c0-16,13-29,29-29c16,0,29,13,29,29C62.4,49.9,49.4,62.9,33.4,62.9z M33.4,6.9
			c-14.9,0-27,12.1-27,27s12.1,27,27,27s27-12.1,27-27S48.3,6.9,33.4,6.9z"/>
	</g>
	<g>
		<path class="st0" d="M36.4,31.9c-0.3,0-0.5-0.1-0.7-0.3c-0.4-0.4-0.4-1,0-1.4l11-11c0.4-0.4,1-0.4,1.4,0s0.4,1,0,1.4l-11,11
			C36.9,31.8,36.6,31.9,36.4,31.9z"/>
	</g>
	<g>
		<path class="st0" d="M15.4,34.9h-4c-0.6,0-1-0.4-1-1s0.4-1,1-1h4c0.6,0,1,0.4,1,1S15.9,34.9,15.4,34.9z"/>
	</g>
	<g>
		<path class="st0" d="M16.7,28c-0.1,0-0.3,0-0.4-0.1l-3.7-1.5c-0.5-0.2-0.8-0.8-0.5-1.3c0.2-0.5,0.8-0.8,1.3-0.5l3.7,1.5
			c0.5,0.2,0.8,0.8,0.5,1.3C17.5,27.8,17.1,28,16.7,28z"/>
	</g>
	<g>
		<path class="st0" d="M20.6,22.2c-0.3,0-0.5-0.1-0.7-0.3l-2.8-2.8c-0.4-0.4-0.4-1,0-1.4c0.4-0.4,1-0.4,1.4,0l2.8,2.8
			c0.4,0.4,0.4,1,0,1.4C21.2,22.1,20.9,22.2,20.6,22.2z"/>
	</g>
	<g>
		<path class="st0" d="M26.5,18.3c-0.4,0-0.8-0.2-0.9-0.6L24,14c-0.2-0.5,0-1.1,0.5-1.3c0.5-0.2,1.1,0,1.3,0.5l1.5,3.7
			c0.2,0.5,0,1.1-0.5,1.3C26.7,18.3,26.6,18.3,26.5,18.3z"/>
	</g>
	<g>
		<path class="st0" d="M33.4,16.9L33.4,16.9c-0.6,0-1-0.4-1-1l0-4c0-0.6,0.4-1,1-1h0c0.6,0,1,0.4,1,1l0,4
			C34.4,16.5,33.9,16.9,33.4,16.9z"/>
	</g>
	<g>
		<path class="st0" d="M40.3,18.3c-0.1,0-0.3,0-0.4-0.1c-0.5-0.2-0.8-0.8-0.5-1.3l1.5-3.7c0.2-0.5,0.8-0.8,1.3-0.5
			c0.5,0.2,0.8,0.8,0.5,1.3l-1.5,3.7C41,18.1,40.7,18.3,40.3,18.3z"/>
	</g>
	<g>
		<path class="st0" d="M50,28c-0.4,0-0.8-0.2-0.9-0.6c-0.2-0.5,0-1.1,0.5-1.3l3.7-1.5c0.5-0.2,1.1,0,1.3,0.5s0,1.1-0.5,1.3L50.4,28
			C50.3,28,50.1,28,50,28z"/>
	</g>
	<g>
		<path class="st0" d="M55.4,34.9C55.4,34.9,55.4,34.9,55.4,34.9l-4,0c-0.6,0-1-0.4-1-1s0.4-1,1-1l0,0l4,0c0.6,0,1,0.4,1,1
			S55.9,34.9,55.4,34.9z"/>
	</g>
	<g>
		<path class="st0" d="M53.7,43.3c-0.1,0-0.3,0-0.4-0.1l-3.7-1.5c-0.5-0.2-0.8-0.8-0.5-1.3c0.2-0.5,0.8-0.8,1.3-0.5l3.7,1.5
			c0.5,0.2,0.8,0.8,0.5,1.3C54.5,43.1,54.1,43.3,53.7,43.3z"/>
	</g>
	<g>
		<path class="st0" d="M13,43.3c-0.4,0-0.8-0.2-0.9-0.6c-0.2-0.5,0-1.1,0.5-1.3l3.7-1.5c0.5-0.2,1.1,0,1.3,0.5
			c0.2,0.5,0,1.1-0.5,1.3l-3.7,1.5C13.3,43.3,13.2,43.3,13,43.3z"/>
	</g>
	<g>
		<path class="st0" d="M43.4,52.9h-20c-0.6,0-1-0.4-1-1v-6c0-0.6,0.4-1,1-1h20c0.6,0,1,0.4,1,1v6C44.4,52.5,43.9,52.9,43.4,52.9z
			 M24.4,50.9h18v-4h-18V50.9z"/>
	</g>
	<g>
		<path class="st0" d="M33.4,38.9c-2.8,0-5-2.2-5-5s2.2-5,5-5s5,2.2,5,5S36.1,38.9,33.4,38.9z M33.4,30.9c-1.7,0-3,1.3-3,3
			s1.3,3,3,3s3-1.3,3-3S35,30.9,33.4,30.9z"/>
	</g>
</g>
</svg>
