<?xml version="1.0" encoding="utf-8"?>
<!-- Generator: Adobe Illustrator 16.0.0, SVG Export Plug-In . SVG Version: 6.00 Build 0)  -->
<!DOCTYPE svg PUBLIC "-//W3C//DTD SVG 1.1//EN" "http://www.w3.org/Graphics/SVG/1.1/DTD/svg11.dtd">
<svg version="1.1" id="Ebene_1" xmlns="http://www.w3.org/2000/svg" xmlns:xlink="http://www.w3.org/1999/xlink" x="0px" y="0px"
	 width="85.4px" height="85.4px" viewBox="0 0 85.4 85.4" style="enable-background:new 0 0 85.4 85.4;" xml:space="preserve">
<style type="text/css">
<![CDATA[
	.st0{enable-background:new    ;}
	.st1{fill:#212121;}
]]>
</style>
<g class="st0">
	<path class="st1" d="M29.5,49.3V38.6c0-1.5,0.2-3,0.7-4.3c0.5-1.4,1.2-2.5,2.1-3.6c0.9-1,1.9-1.9,3.2-2.6c1.2-0.7,2.6-1.1,4-1.3
		v4.6c-1.8,0.6-3,1.5-3.6,2.7c-0.7,1.2-1,2.6-1,4.4h4.6v10.8H29.5z M44.4,49.3V38.6c0-1.5,0.2-3,0.7-4.3c0.5-1.4,1.2-2.5,2.1-3.6
		c0.9-1,1.9-1.9,3.2-2.6c1.2-0.7,2.6-1.1,4-1.3v4.6c-1.8,0.6-3,1.5-3.6,2.7c-0.7,1.2-1,2.6-1,4.4h4.6v10.8H44.4z"/>
</g>
</svg>
